<svg width="80" height="80" viewBox="0 0 80 80" fill="none" xmlns="http://www.w3.org/2000/svg">
<path d="M8.88892 24.4443V24.7488C8.88892 24.6554 8.91336 24.5621 8.92225 24.4688L8.88892 24.4443ZM37.7778 49.1932C37.451 49.0498 37.1435 48.8662 36.8622 48.6466L10.1445 27.211C9.30669 26.5332 8.88892 25.6421 8.88892 24.7488V51.9443C8.88892 56.4821 11.3178 57.4643 11.3178 57.4643L37.0378 77.6843C37.4934 78.0421 37.8756 78.2599 38.2111 78.391C37.9372 77.9963 37.7864 77.5292 37.7778 77.0488V49.1932ZM18.2822 49.9999C16.0734 49.9999 13.7645 47.7621 13.1289 44.9999C12.4911 42.2399 13.7667 40.0021 15.9734 40.0021C18.1822 40.0021 20.4911 42.2399 21.1267 44.9999C21.7645 47.7621 20.4911 49.9999 18.2822 49.9999V49.9999ZM30.6889 66.6666C28.48 66.6666 26.1711 64.4266 25.5356 61.6666C24.8978 58.9043 26.1734 56.6666 28.3822 56.6666C30.5911 56.6666 32.9 58.9043 33.5356 61.6666C34.1711 64.4266 32.8978 66.6666 30.6889 66.6666Z" fill="#1C0C5B"/>
<path d="M69.8556 27.0243L42.9578 48.6466C42.7298 48.8289 42.4833 48.9868 42.2223 49.1177V77.0488C42.2223 77.5666 42.0378 78.0199 41.7778 78.4132C42.1223 78.2843 42.5223 78.0577 42.9956 77.6843C47.0423 74.5021 68.7467 57.4643 68.7467 57.4643C68.7467 57.4643 71.1112 56.4821 71.1112 51.9443V24.5621C71.1112 25.4554 70.6934 26.3466 69.8556 27.0243V27.0243ZM53.2845 64.2043C52.7467 66.731 50.7978 68.7777 48.9334 68.7777C47.0712 68.7777 45.9956 66.731 46.5334 64.2043C47.0712 61.6777 49.0178 59.631 50.8823 59.631C52.7467 59.631 53.8201 61.6777 53.2845 64.2043ZM61.1467 52.491C60.5823 55.0954 58.5289 57.2043 56.5645 57.2043C54.6023 57.2043 53.4712 55.0954 54.0356 52.491C54.6023 49.8866 56.6556 47.7777 58.6156 47.7777C60.5823 47.7777 61.7134 49.8866 61.1467 52.491V52.491ZM67.9534 41.1466C67.3956 43.6243 65.3689 45.6288 63.4312 45.6288C61.4934 45.6288 60.3756 43.6243 60.9356 41.1466C61.4934 38.6732 63.5178 36.6666 65.4556 36.6666C67.3956 36.6666 68.5134 38.6732 67.9534 41.1466V41.1466ZM71.0978 24.4554C71.1001 24.491 71.1112 24.5266 71.1112 24.5621V24.4443L71.0978 24.4554V24.4554Z" fill="#916BBF"/>
<path d="M69.8556 22.1L42.8645 1.11115C41.1911 -0.244406 38.4467 -0.244406 36.7711 1.11115L10.1445 22.2867C9.804 22.5498 9.52008 22.8788 9.30969 23.2542C9.09931 23.6295 8.96678 24.0434 8.92003 24.4712C8.91336 24.5645 8.88892 24.6556 8.88892 24.7489C8.88892 25.6423 9.30669 26.5334 10.1445 27.2112L36.8622 48.6467C37.14 48.8712 37.4511 49.0423 37.7778 49.1934V77.0489C37.7778 77.5578 37.9578 78.0045 38.2089 78.3912C38.6111 79.0134 39.2445 79.4445 40 79.4445C40.7467 79.4445 41.3756 79.0223 41.7778 78.4134C42.0591 78.0133 42.2139 77.538 42.2223 77.0489V49.1178C42.4832 48.9869 42.7298 48.829 42.9578 48.6467L69.8556 27.0245C70.6934 26.3467 71.1111 25.4556 71.1111 24.5623C71.1111 24.5267 71.1 24.4912 71.0978 24.4534C71.0667 23.5978 70.6578 22.7489 69.8556 22.1V22.1ZM41.1111 19.26C44.6889 19.26 47.5911 21.58 47.5911 24.4445C47.5911 27.3089 44.6889 29.6289 41.1111 29.6289C37.5311 29.6289 34.6311 27.3089 34.6311 24.4445C34.6311 21.58 37.5311 19.26 41.1111 19.26Z" fill="#3D2C8D"/>
<path d="M41.1111 29.6289C44.6899 29.6289 47.5911 27.3077 47.5911 24.4445C47.5911 21.5812 44.6899 19.26 41.1111 19.26C37.5323 19.26 34.6311 21.5812 34.6311 24.4445C34.6311 27.3077 37.5323 29.6289 41.1111 29.6289Z" fill="white"/>
<path d="M65.4556 36.6667C63.5178 36.6667 61.4933 38.6734 60.9356 41.1467C60.3756 43.6245 61.4933 45.629 63.4311 45.629C65.3689 45.629 67.3956 43.6245 67.9533 41.1467C68.5133 38.6734 67.3956 36.6667 65.4556 36.6667V36.6667ZM58.6178 47.7779C56.6556 47.7779 54.6022 49.8867 54.0378 52.4912C53.4733 55.0956 54.6045 57.2045 56.5667 57.2045C58.5311 57.2045 60.5845 55.0956 61.1489 52.4912C61.7133 49.8867 60.5822 47.7779 58.6178 47.7779ZM50.88 59.6312C49.0156 59.6312 47.0689 61.6779 46.5311 64.2045C45.9933 66.7312 47.0689 68.7779 48.9311 68.7779C50.7956 68.7779 52.7445 66.7312 53.2822 64.2045C53.82 61.6779 52.7445 59.6312 50.88 59.6312V59.6312Z" fill="white"/>
<path d="M15.9733 40.0022C13.7644 40.0022 12.4911 42.24 13.1288 45C13.7666 47.7622 16.0733 50 18.2822 50C20.4911 50 21.7644 47.7622 21.1266 45C20.4911 42.24 18.1822 40.0022 15.9733 40.0022ZM28.3799 56.6666C26.1711 56.6666 24.8977 58.9044 25.5333 61.6666C26.1711 64.4266 28.4799 66.6666 30.6888 66.6666C32.8977 66.6666 34.1711 64.4266 33.5355 61.6666C32.8977 58.9044 30.5888 56.6666 28.3799 56.6666Z" fill="#E1E8ED"/>
</svg>
